<?xml version="1.0" encoding="UTF-8"?>
<svg version="1.1" xmlns="http://www.w3.org/2000/svg" width="860" height="897">
<path d="M0 0 C1.0425293 0.47630859 2.08505859 0.95261719 3.15917969 1.44335938 C43.73543696 19.99730606 80.12484568 44.9058255 113 75 C113.49467773 75.44956055 113.98935547 75.89912109 114.49902344 76.36230469 C125.18674172 86.07661848 135.65393668 95.96699164 145 107 C145.86882813 107.99128906 146.73765625 108.98257813 147.6328125 110.00390625 C173.62903659 139.73554377 195.00355735 173.38251537 212 209 C212.34885254 209.72815918 212.69770508 210.45631836 213.05712891 211.20654297 C230.25639481 247.41999507 241.69871007 286.22332631 247.75 325.8125 C247.94875732 327.10945801 248.14751465 328.40641602 248.35229492 329.74267578 C248.94805185 333.82385335 249.49501866 337.9067559 250 342 C250.14143936 343.13633377 250.14143936 343.13633377 250.28573608 344.29562378 C252.17331317 359.99802721 252.35907486 375.63688205 252.3125 391.4375 C252.30976578 393.36062515 252.30976578 393.36062515 252.30697632 395.32260132 C252.26210339 414.06179855 251.86484419 432.45054944 249 451 C248.82307617 452.18577637 248.64615234 453.37155273 248.46386719 454.59326172 C242.74408417 492.17687917 232.57438703 527.89616076 218 563 C217.64583008 563.86157715 217.29166016 564.7231543 216.92675781 565.61083984 C211.55553896 578.57926029 204.869486 590.77361971 198 603 C197.25621591 604.33837804 196.51269418 605.67690194 195.76953125 607.015625 C183.81458089 628.30068631 169.74512621 648.35820261 154 667 C153.49227051 667.60537598 152.98454102 668.21075195 152.46142578 668.83447266 C139.41655632 684.36846915 125.7373431 700.01805351 110.20703125 713.12890625 C108.40782581 714.65425033 106.64402702 716.2045763 104.88671875 717.77734375 C84.12532515 736.25168404 61.08309942 752.16516071 37 766 C36.33532715 766.38575195 35.6706543 766.77150391 34.98583984 767.16894531 C-29.30359051 804.34585247 -103.25012229 823.28291587 -177.375 823.1875 C-178.68726059 823.18659363 -178.68726059 823.18659363 -180.02603149 823.18566895 C-194.76083441 823.15819458 -209.34787744 822.66753707 -224 821 C-225.70808838 820.80664062 -225.70808838 820.80664062 -227.45068359 820.609375 C-307.55576978 811.20189988 -382.79112157 780.03691031 -446 730 C-446.93199219 729.26265625 -447.86398437 728.5253125 -448.82421875 727.765625 C-454.80281392 722.95545713 -460.49137565 717.89182695 -466.109375 712.671875 C-468.64672674 710.32653906 -471.21983665 708.03360414 -473.8125 705.75 C-482.69224534 697.77547142 -491.45526488 689.3216294 -499.15234375 680.1875 C-500.70400871 678.35043366 -502.28181055 676.54730579 -503.87890625 674.75 C-511.76114337 665.84491342 -519.04856435 656.64613924 -526 647 C-526.91072266 645.74751465 -526.91072266 645.74751465 -527.83984375 644.46972656 C-538.6399545 629.55709879 -548.08613283 614.1029106 -557 598 C-557.66636475 596.81398193 -557.66636475 596.81398193 -558.34619141 595.60400391 C-581.81985182 553.7662719 -596.59852428 506.28298901 -603.8125 459 C-604.00739014 457.72697021 -604.20228027 456.45394043 -604.40307617 455.14233398 C-607.42611485 434.24219834 -608.37484682 413.5479616 -608.3125 392.4375 C-608.31067719 391.15597046 -608.30885437 389.87444092 -608.30697632 388.55407715 C-608.2629107 370.16134806 -607.82849807 352.19871245 -605 334 C-604.83371094 332.82937012 -604.66742187 331.65874023 -604.49609375 330.45263672 C-598.69213023 289.65829681 -586.87455477 250.55211053 -570 213 C-569.65404785 212.21318848 -569.3080957 211.42637695 -568.95166016 210.61572266 C-554.51014585 177.78744507 -534.27628504 147.25204181 -511.42236328 119.7265625 C-510.17922023 118.21754986 -508.96050954 116.68847651 -507.74609375 115.15625 C-494.57788866 98.56481133 -479.20534949 82.66217421 -463 69 C-462.04609375 68.15695313 -461.0921875 67.31390625 -460.109375 66.4453125 C-403.26997368 16.38101801 -332.17558455 -16.90274407 -258 -31 C-256.97261719 -31.19577637 -255.94523437 -31.39155273 -254.88671875 -31.59326172 C-171.29669001 -47.1105417 -80.15105504 -37.45591676 0 0 Z " fill="#FEFEFE" transform="translate(608,56)"/>
<path d="M0 0 C1.04181427 0.17529236 1.04181427 0.17529236 2.10467529 0.35412598 C4.37809832 0.73813103 6.64999183 1.13043261 8.921875 1.5234375 C10.5155596 1.79579314 12.10931074 2.06775964 13.703125 2.33935547 C16.1787525 2.76162806 18.65422634 3.18471396 21.12927246 3.61038208 C26.08605427 4.46221252 31.04567027 5.29298102 36.00970459 6.10147095 C39.14747445 6.61303172 42.28394485 7.13229967 45.42028809 7.65252686 C46.90031326 7.89633583 48.38085552 8.13703008 49.86193848 8.37432861 C71.03256924 11.77487101 92.36722256 18.85629087 105.609375 36.8359375 C127.47542338 70.70164658 117.91452387 124.8897381 110.15600586 162.40454102 C109.3441318 166.58673643 108.80059315 170.8022494 108.234375 175.0234375 C106.52069568 187.36017992 104.33960445 199.52491535 101.41796875 211.640625 C100.82659013 214.22287509 100.31150194 216.79284945 99.8203125 219.39453125 C98.50202117 226.04763683 96.67747748 232.55494334 94.859375 239.0859375 C94.68168579 239.72673248 94.50399658 240.36752747 94.32092285 241.02774048 C91.71300193 250.41904266 89.0087507 259.73719694 85.671875 268.8984375 C85.18654297 270.28095703 85.18654297 270.28095703 84.69140625 271.69140625 C80.03402332 284.25683529 72.45097578 293.14614279 60.2421875 298.83984375 C56.13104934 300.53303287 51.99363995 301.86001342 47.671875 302.8984375 C46.96595215 303.06835205 46.2600293 303.2382666 45.53271484 303.41333008 C39.07540169 304.8493556 32.90085121 305.24764103 26.296875 305.2109375 C25.22252197 305.20602295 24.14816895 305.2011084 23.04125977 305.19604492 C2.81765075 304.91194408 -16.90938547 301.99651528 -36.59423828 297.50830078 C-39.21701083 296.92322435 -41.84413032 296.38343057 -44.48046875 295.86328125 C-52.1563262 294.34608458 -59.75367197 292.66140859 -67.265625 290.4609375 C-67.92240234 290.27982422 -68.57917969 290.09871094 -69.25585938 289.91210938 C-73.70027812 288.53701466 -76.11563437 287.01843885 -78.328125 282.8984375 C-79.20058631 274.84432706 -77.22458207 267.07514472 -75.578125 259.2109375 C-75.19914063 257.27250977 -75.19914063 257.27250977 -74.8125 255.29492188 C-74.5546875 254.04646484 -74.296875 252.79800781 -74.03125 251.51171875 C-73.80083008 250.38548096 -73.57041016 249.25924316 -73.33300781 248.09887695 C-71.92178751 243.60429801 -69.64776302 240.21807552 -66.328125 236.8984375 C-60.77812015 236.52216598 -56.68876804 237.26496465 -51.328125 238.8984375 C-51.24175781 238.07988281 -51.15539062 237.26132812 -51.06640625 236.41796875 C-49.97034032 226.87515619 -48.45966627 217.42673606 -46.828125 207.9609375 C-46.61454346 206.71739502 -46.40096191 205.47385254 -46.1809082 204.19262695 C-45.30026487 199.14511981 -44.41254775 194.11474306 -43.26171875 189.12109375 C-42.20677609 184.53891803 -41.5414763 179.92766421 -40.890625 175.2734375 C-39.84259383 168.02344123 -38.56738186 160.88666864 -37.07421875 153.71484375 C-36.23353595 149.41459718 -35.55034665 145.10438387 -34.890625 140.7734375 C-33.86797864 134.07452934 -32.69343073 127.42341107 -31.390625 120.7734375 C-29.64857522 111.85608012 -28.17187646 102.91035799 -26.76025391 93.93530273 C-24.54678509 79.87332983 -21.98201781 65.88313509 -19.328125 51.8984375 C-20.28074219 51.76179688 -21.23335937 51.62515625 -22.21484375 51.484375 C-25.46398792 50.87286732 -26.42276313 50.5057748 -28.328125 47.8984375 C-31.07921234 39.64517547 -28.20110202 31.95474911 -25.89257812 23.92578125 C-25.32671662 21.89337903 -24.81216505 19.85429393 -24.3125 17.8046875 C-24.14717773 17.13961182 -23.98185547 16.47453613 -23.81152344 15.78930664 C-23.353914 13.94014852 -22.90330903 12.08926112 -22.453125 10.23828125 C-18.34184315 -1.96708674 -11.39970083 -1.94603925 0 0 Z " fill="#0D3C4E" transform="translate(642.328125,329.1015625)"/>
<path d="M0 0 C13.70368022 15.44076645 16.21998307 35.65756844 19.60083008 55.23632812 C19.86899764 56.78393598 20.13949647 58.33114174 20.41235352 59.87792969 C23.03311822 74.73575871 24.14757483 89.17409704 24.18164062 104.26098633 C24.19142749 106.88068455 24.22259045 109.49962262 24.25390625 112.11914062 C24.26043159 113.81249544 24.2656839 115.50585574 24.26953125 117.19921875 C24.28187805 117.96819992 24.29422485 118.73718109 24.3069458 119.52946472 C24.28392548 125.21645019 22.99736219 129.9076922 20.94140625 135.1875 C20.67087936 135.89277328 20.40035248 136.59804657 20.12162781 137.32469177 C15.96490711 147.98675271 10.68619161 156.98948727 2.94140625 165.5 C0.43386764 168.86950501 0.59289864 170.03882722 0.94140625 174.1875 C1.62702649 177.24498579 2.53952724 180.20745498 3.50390625 183.1875 C3.77348145 184.02474609 4.04305664 184.86199219 4.32080078 185.72460938 C8.33161834 197.77316974 14.06225287 208.20625906 21.94140625 218.1875 C22.65296875 219.11433594 23.36453125 220.04117188 24.09765625 220.99609375 C32.34793343 231.46871671 41.74918526 239.12986236 52.94140625 246.1875 C52.59782934 252.51764437 49.31814609 256.999142 46.00390625 262.1875 C45.42141113 263.11288574 44.83891602 264.03827148 44.23876953 264.99169922 C39.42014492 272.58264709 34.44312178 280.07138146 28.94140625 287.1875 C28.47992188 287.80367187 28.0184375 288.41984375 27.54296875 289.0546875 C24.88549465 290.93436431 23.11390056 290.67410239 19.94140625 290.1875 C17.46849866 288.61995787 15.40325273 287.1226289 13.19140625 285.25 C12.58014893 284.75000488 11.9688916 284.25000977 11.33911133 283.73486328 C6.05959484 279.3819784 0.91811695 274.88395225 -4.05859375 270.1875 C-4.79335938 269.50558594 -5.528125 268.82367187 -6.28515625 268.12109375 C-21.64460838 253.38578897 -32.67037386 235.3132022 -41.24951172 215.98046875 C-41.93513278 214.46109607 -42.6659422 212.96224052 -43.40625 211.46875 C-46.08093661 206.02350988 -46.7170076 201.25065414 -47.05859375 195.1875 C-50.35859375 195.5175 -53.65859375 195.8475 -57.05859375 196.1875 C-56.60460594 202.75030776 -56.14596535 209.31277754 -55.68359375 215.875 C-55.61578705 216.83823181 -55.54798035 217.80146362 -55.4781189 218.79388428 C-54.26289267 235.98887211 -54.26289267 235.98887211 -52.61767578 253.1472168 C-51.25505033 266.00131686 -51.25505033 266.00131686 -53.37109375 269.125 C-56.38065348 271.01990798 -59.00538013 271.32085806 -62.46655273 271.36450195 C-63.35434921 271.37733719 -64.24214569 271.39017242 -65.15684509 271.40339661 C-66.59127708 271.41447701 -66.59127708 271.41447701 -68.0546875 271.42578125 C-69.03977798 271.433853 -70.02486847 271.44192474 -71.03981018 271.45024109 C-73.12360885 271.46407031 -75.20743006 271.47479766 -77.29125977 271.48266602 C-80.48041401 271.49991519 -83.66854121 271.54381606 -86.85742188 271.58789062 C-88.88150279 271.59801458 -90.90559252 271.60653161 -92.9296875 271.61328125 C-93.88395126 271.63078934 -94.83821503 271.64829742 -95.82139587 271.66633606 C-99.63917683 271.65379979 -102.26931186 271.63049794 -105.6328125 269.74267578 C-107.78809021 265.8801524 -107.82542803 262.24394919 -108 257.87890625 C-108.05281631 256.94047379 -108.10563263 256.00204132 -108.16004944 255.03517151 C-108.33069325 251.94076392 -108.47560488 248.84568319 -108.62109375 245.75 C-108.73602841 243.60063591 -108.85307919 241.45138402 -108.97216797 239.30224609 C-109.2184265 234.84228562 -109.45693508 230.38200694 -109.69091797 225.92138672 C-110.2024435 216.35363229 -110.83963974 206.79448117 -111.48654175 197.2350769 C-111.6798121 194.36858759 -111.86882645 191.50184522 -112.05688477 188.63500977 C-112.17449738 186.86343441 -112.29224723 185.09186815 -112.41015625 183.3203125 C-112.48654076 182.14971031 -112.48654076 182.14971031 -112.56446838 180.95545959 C-112.83409207 176.96171764 -113.17003534 172.98375228 -113.58154297 169.00195312 C-113.95768222 165.34035986 -114.22174421 161.70399721 -114.33984375 158.0234375 C-114.37722656 156.96382812 -114.41460937 155.90421875 -114.453125 154.8125 C-114.52369076 152.63802904 -114.59400145 150.46354978 -114.6640625 148.2890625 C-114.70144531 147.23203125 -114.73882812 146.175 -114.77734375 145.0859375 C-114.80763672 144.14411621 -114.83792969 143.20229492 -114.86914062 142.23193359 C-115.05657117 139.22000203 -115.43054539 136.2581318 -115.82125854 133.26693726 C-116.21168354 129.84618776 -116.32937959 126.41491201 -116.453125 122.9765625 C-116.51941797 121.3459227 -116.58634342 119.71530852 -116.65380859 118.0847168 C-116.68867371 117.22711761 -116.72353882 116.36951843 -116.75946045 115.4859314 C-117.45971695 98.7159559 -118.43343277 81.96529872 -119.68563843 65.22747803 C-119.85049882 62.99848435 -120.00908306 60.7690173 -120.1612854 58.53912354 C-120.37733858 55.40334479 -120.61700427 52.27025019 -120.86328125 49.13671875 C-120.95404686 47.73474998 -120.95404686 47.73474998 -121.04664612 46.30445862 C-121.50396079 40.90463125 -122.36450303 38.32178904 -126.05859375 34.1875 C-126.97167969 31.28759766 -126.97167969 31.28759766 -127.54296875 28.1015625 C-127.75646973 26.92980469 -127.9699707 25.75804687 -128.18994141 24.55078125 C-128.39409668 23.31714844 -128.59825195 22.08351563 -128.80859375 20.8125 C-129.02177246 19.55566406 -129.23495117 18.29882812 -129.45458984 17.00390625 C-132.61551089 -2.51156477 -132.61551089 -2.51156477 -131.05859375 -8.8125 C-128.21228145 -12.29790113 -125.54561687 -13.07856823 -121.2421875 -13.60546875 C-119.32825056 -13.75633913 -117.41262102 -13.88668753 -115.49609375 -14 C-114.46742188 -14.07331543 -113.43875 -14.14663086 -112.37890625 -14.22216797 C-109.27301727 -14.43711004 -106.16630759 -14.62610827 -103.05859375 -14.8125 C-101.43483938 -14.92496919 -99.81113642 -15.03818446 -98.1875 -15.15234375 C-21.48192055 -20.13658815 -21.48192055 -20.13658815 0 0 Z " fill="#0E3D4E" transform="translate(391.05859375,384.8125)"/>
<path d="M0 0 C4.22599296 6.27082827 4.25684262 12.24877548 4.2734375 19.56640625 C4.2834227 21.10070534 4.2834227 21.10070534 4.29360962 22.66600037 C4.3037068 24.82183032 4.30842755 26.97769135 4.30810547 29.13354492 C4.31249009 32.43004569 4.34887302 35.72521918 4.38671875 39.02148438 C4.39258522 41.1197871 4.39655575 43.21809617 4.3984375 45.31640625 C4.41280853 46.29984512 4.42717957 47.283284 4.44198608 48.29652405 C4.41271933 52.67817866 4.36852951 55.17373411 2.03369141 58.97241211 C-1.65996974 62.32492799 -5.02220599 62.15037241 -9.8046875 62.375 C-10.59080917 62.4151976 -11.37693085 62.4553952 -12.18687439 62.49681091 C-14.77021162 62.62741638 -17.35382476 62.75127671 -19.9375 62.875 C-21.736583 62.96471012 -23.53565521 63.05463685 -25.3347168 63.14477539 C-35.17965438 63.63098003 -45.02218406 64.02248974 -54.875 64.3125 C-71.95763214 64.83577715 -88.98809061 66.23324135 -106.02783203 67.50195312 C-113.30881942 68.04299614 -120.59119333 68.5609539 -127.875 69.0625 C-129.61402588 69.18806274 -129.61402588 69.18806274 -131.38818359 69.31616211 C-138.95696328 69.83340474 -146.47702845 69.966035 -154.0625 69.875 C-153.92956543 70.75454346 -153.79663086 71.63408691 -153.65966797 72.5402832 C-152.490804 80.33129943 -151.59988312 88.11760497 -150.81738281 95.95507812 C-150.25221986 101.46374151 -149.47451851 106.89087283 -148.4296875 112.33203125 C-148.01465711 115.2063375 -148.03906846 117.97422565 -148.0625 120.875 C-143.7909423 120.42326591 -139.52041655 119.96238763 -135.25 119.5 C-134.05439453 119.37367188 -132.85878906 119.24734375 -131.62695312 119.1171875 C-125.17665647 118.41415789 -118.81485421 117.56305113 -112.44604492 116.31640625 C-104.50335422 114.84550747 -104.50335422 114.84550747 -101.0625 115.875 C-90.4125435 126.39756468 -92.88843435 150.79256967 -92.75 164.5625 C-92.72377563 165.8609082 -92.72377563 165.8609082 -92.69702148 167.18554688 C-92.69774658 167.99443359 -92.69847168 168.80332031 -92.69921875 169.63671875 C-92.69623779 170.33756592 -92.69325684 171.03841309 -92.69018555 171.76049805 C-93.22689468 174.80865398 -94.06825358 176.48793224 -96.0625 178.875 C-98.67678555 179.61489943 -100.77679116 180.00239742 -103.44140625 180.23828125 C-104.1681102 180.31999069 -104.89481415 180.40170013 -105.64353943 180.48588562 C-107.96896592 180.74128558 -110.29630561 180.9641015 -112.625 181.1875 C-114.16493134 181.35543657 -115.70464969 181.52533863 -117.24414062 181.69726562 C-124.86563252 182.52184981 -132.38827549 183.08199706 -140.0625 182.875 C-139.92972656 183.48738525 -139.79695313 184.09977051 -139.66015625 184.73071289 C-138.60991393 189.63419445 -137.81567711 194.52506164 -137.1875 199.5 C-135.026077 216.19283609 -131.9353648 232.7534134 -128.9375 249.3125 C-128.8094397 250.02218933 -128.68137939 250.73187866 -128.54943848 251.46307373 C-126.91693045 260.59307865 -126.91693045 260.59307865 -124.97265625 269.66015625 C-123.81862853 274.6836058 -123.23874569 279.762179 -122.625 284.875 C-121.29501633 295.52001772 -119.6770276 306.08266192 -117.5 316.58984375 C-116.4777966 321.92903115 -116.23676928 325.3943794 -118.875 330.125 C-125.27053237 336.69818605 -136.64181088 337.89166351 -145.265625 339.9453125 C-147.72913168 340.54851681 -150.1776121 341.21839545 -152.6015625 341.96484375 C-158.41129047 343.49268418 -164.10884081 343.55999873 -170.0625 342.875 C-176.08949808 339.21153058 -177.0958103 332.65907686 -178.74755859 326.19335938 C-181.22437434 315.86566498 -182.8160078 305.4366234 -184.4375 294.94970703 C-185.81189592 286.10024372 -187.30524212 277.37216624 -189.41064453 268.66015625 C-190.30497373 264.8389924 -190.93234882 261.00595322 -191.5 257.125 C-191.75209879 255.46737098 -192.0047296 253.80982281 -192.2578125 252.15234375 C-192.38833008 251.2897998 -192.51884766 250.42725586 -192.65332031 249.53857422 C-193.21119396 245.90706975 -193.80315829 242.28140459 -194.39331055 238.6550293 C-196.26873783 227.10114251 -198.04435413 215.53264544 -199.78866577 203.95834351 C-200.05041133 202.22193844 -200.31278076 200.48562728 -200.57583618 198.74942017 C-201.83059578 190.45886812 -203.04944405 182.17252286 -204.0546875 173.84765625 C-204.74404126 168.16605276 -205.57503691 162.5271665 -206.49609375 156.87890625 C-208.16377884 146.59121193 -209.47042594 136.26570057 -210.74243164 125.92260742 C-211.12507224 122.81191269 -211.5123406 119.70182098 -211.90039062 116.59179688 C-212.63456729 110.68780021 -213.35433374 104.78217139 -214.0625 98.875 C-214.16874695 97.98999817 -214.2749939 97.10499634 -214.38446045 96.19317627 C-214.67697715 93.73483588 -214.96299599 91.27584719 -215.24609375 88.81640625 C-215.33021011 88.10862534 -215.41432648 87.40084442 -215.50099182 86.6716156 C-215.98392357 82.38566519 -216.13573953 78.18632013 -216.0625 73.875 C-217.61710937 73.97941406 -217.61710937 73.97941406 -219.203125 74.0859375 C-220.57285174 74.14222764 -221.94264873 74.19682648 -223.3125 74.25 C-223.99441406 74.30027344 -224.67632812 74.35054688 -225.37890625 74.40234375 C-227.390625 74.4609375 -227.390625 74.4609375 -231.0625 73.875 C-234.88167035 69.81125224 -235.93795681 65.37722715 -236.75 60 C-236.87028564 59.26040039 -236.99057129 58.52080078 -237.11450195 57.75878906 C-238.28767422 50.14893559 -238.80185691 42.56792043 -239.0625 34.875 C-239.11535156 33.66070312 -239.16820312 32.44640625 -239.22265625 31.1953125 C-239.40158497 24.33378494 -239.04913989 19.88950947 -234.859375 14.2578125 C-232.17911984 12.19518135 -229.9863039 12.4618367 -226.625 12.375 C-218.88699366 12.07569975 -211.25333587 11.2625854 -203.5625 10.375 C-193.79859734 9.27798343 -184.10771699 8.53071331 -174.28842163 8.22657776 C-167.19679782 7.99806015 -160.14362756 7.54656675 -153.0703125 7 C-140.73889978 6.08502014 -128.40153247 5.36206441 -116.0546875 4.69140625 C-114.1651406 4.58821458 -112.27559388 4.48501936 -110.38604736 4.38182068 C-102.62902345 3.95928409 -94.87183312 3.53998127 -87.11425781 3.12768555 C-81.36490279 2.82153745 -75.61589682 2.50944936 -69.8671875 2.19140625 C-68.93557549 2.13994068 -68.00396347 2.08847511 -67.04412079 2.03544998 C-52.94534852 1.24717212 -38.88683492 0.19757577 -24.83395386 -1.18858337 C-4.53553567 -3.14710638 -4.53553567 -3.14710638 0 0 Z " fill="#0D3D4E" transform="translate(337.0625,257.125)"/>
<path d="M0 0 C0.52791641 0.38709641 1.05583282 0.77419281 1.5997467 1.17301941 C3.75461442 3.98458322 3.38914736 6.417204 3.40405273 9.91918945 C3.41420741 10.97638042 3.41420741 10.97638042 3.42456722 12.05492878 C3.4427406 14.40790156 3.43869752 16.76025166 3.43359375 19.11328125 C3.43956882 20.77859816 3.44639137 22.44391221 3.45401001 24.10922241 C3.4688019 28.58343215 3.46083956 33.0573213 3.44581985 37.53152084 C3.43751462 40.30761466 3.43479605 43.08366659 3.43331909 45.85977173 C3.40499242 73.95567612 2.33870643 101.72575506 -0.29273987 129.70898438 C-0.98579891 137.25600564 -1.35718662 144.79689319 -1.66325378 152.3682251 C-1.96039338 159.58579812 -2.46885974 166.75450073 -3.25 173.9375 C-3.37568359 175.1028125 -3.50136719 176.268125 -3.63085938 177.46875 C-4.85662191 188.04598725 -6.91917719 198.34811611 -9.4375 208.68701172 C-9.9155023 210.65254721 -10.36688532 212.62452586 -10.8125 214.59765625 C-13.48222341 226.11083845 -17.12612232 237.29085383 -24 247 C-24.52722656 247.76957031 -25.05445313 248.53914062 -25.59765625 249.33203125 C-36.24354913 263.06640295 -57.24590265 268.24552224 -73.58868408 270.71334839 C-81.65304099 271.67202033 -89.83094304 271.43877914 -97.9375 271.375 C-98.9233609 271.37200897 -99.9092218 271.36901794 -100.92495728 271.36593628 C-139.54317987 271.22841007 -139.54317987 271.22841007 -148 267 C-149.93696798 266.92275017 -151.87464175 266.86267882 -153.8125 266.8125 C-160.64059387 266.25510458 -160.64059387 266.25510458 -163.25 263.5625 C-165.9090704 258.1493924 -166.04732024 253.46961399 -164.30078125 247.68359375 C-163.64515603 245.960157 -162.9685188 244.24464615 -162.27734375 242.53515625 C-160.18252773 236.73757676 -158.72551477 230.75977323 -157.19482422 224.79199219 C-153.82782089 211.96810123 -153.82782089 211.96810123 -149 208 C-143.11537709 207.58420721 -137.56591604 208.23998135 -131.74194336 209.06762695 C-111.64563921 211.91236795 -91.05791745 212.48833347 -71 209 C-68.95051149 202.95328213 -67.52901303 196.89672434 -66.39453125 190.625 C-66.25905884 189.88894531 -66.12358643 189.15289062 -65.98400879 188.39453125 C-65.65350287 186.59681253 -65.32639966 184.7984688 -65 183 C-65.90540527 182.98541748 -66.81081055 182.97083496 -67.74365234 182.95581055 C-101.66780225 182.34578803 -101.66780225 182.34578803 -116 179 C-117.49080078 178.6596875 -117.49080078 178.6596875 -119.01171875 178.3125 C-130.26489447 175.35202328 -138.78821241 168.18598109 -145.1875 158.5625 C-153.94393932 142.77724318 -155.33505187 123.53646009 -158 106 C-158.30336231 104.088538 -158.60674538 102.17707929 -158.91015625 100.265625 C-162.52007965 76.72778606 -163.20192518 53.02876035 -163.35147095 29.25717163 C-163.36713493 26.92234467 -163.3889074 24.58755056 -163.4168396 22.25283813 C-163.45246115 18.95471705 -163.46076256 15.6576656 -163.4609375 12.359375 C-163.47521286 11.35764755 -163.48948822 10.3559201 -163.50419617 9.32383728 C-163.49813858 8.40196121 -163.49208099 7.48008514 -163.48583984 6.53027344 C-163.48868988 5.7244281 -163.49153992 4.91858276 -163.49447632 4.08831787 C-163 2 -163 2 -161.22332764 0.24012756 C-158.86183442 -1.07706599 -157.61274893 -1.37475414 -154.94091797 -1.37231445 C-154.15264618 -1.37854324 -153.36437439 -1.38477203 -152.55221558 -1.39118958 C-151.70740631 -1.38197983 -150.86259705 -1.37277008 -149.9921875 -1.36328125 C-149.11152618 -1.36377975 -148.23086487 -1.36427826 -147.32351685 -1.36479187 C-145.45914456 -1.36245298 -143.59476902 -1.35273534 -141.73046875 -1.33618164 C-138.90595518 -1.31275672 -136.08239749 -1.31560154 -133.2578125 -1.32226562 C-131.44009863 -1.31668244 -129.6223887 -1.30956855 -127.8046875 -1.30078125 C-126.97202362 -1.30169266 -126.13935974 -1.30260406 -125.28146362 -1.30354309 C-109.2265057 -1.11395073 -109.2265057 -1.11395073 -104 4 C-103.49447632 6.05517578 -103.49447632 6.05517578 -103.48583984 8.4453125 C-103.4725766 9.34475586 -103.45931335 10.24419922 -103.44564819 11.17089844 C-103.45069366 12.14575195 -103.45573914 13.12060547 -103.4609375 14.125 C-103.44914459 15.14110352 -103.43735168 16.15720703 -103.42520142 17.20410156 C-103.38985522 20.46955356 -103.38078158 23.73437249 -103.375 27 C-103.35311186 31.25016172 -103.31911362 35.50002777 -103.2734375 39.75 C-103.2624704 40.79615479 -103.2515033 41.84230957 -103.24020386 42.92016602 C-103.11418374 50.90492576 -102.43043215 58.72505792 -101.48583984 66.6484375 C-100.99459905 70.82369493 -100.71162041 74.98933954 -100.5078125 79.1875 C-100.41282471 81.11819336 -100.41282471 81.11819336 -100.31591797 83.08789062 C-100.22141357 85.02438477 -100.22141357 85.02438477 -100.125 87 C-99.49294773 98.96042831 -98.07698028 110.40904516 -95 122 C-90.12856641 123.55732874 -85.90939572 124.28130311 -80.75390625 124.4140625 C-80.09792953 124.43342865 -79.44195282 124.4527948 -78.76609802 124.4727478 C-76.69835872 124.53188909 -74.63056171 124.57866229 -72.5625 124.625 C-71.14906606 124.66324033 -69.73565391 124.70229545 -68.32226562 124.7421875 C-64.88171148 124.83753452 -61.44099161 124.92180287 -58 125 C-58.0163147 123.42677979 -58.0163147 123.42677979 -58.03295898 121.82177734 C-58.09787586 112.75188584 -57.81803212 103.78105937 -57.20346069 94.72799683 C-56.3408794 81.85912049 -55.92458504 69.01231855 -55.83608437 56.11589813 C-55.82031499 53.83239136 -55.80172487 51.54892211 -55.78251648 49.26544189 C-55.72669682 42.35971918 -55.68340126 35.45491708 -55.69393539 28.54894352 C-55.69350572 25.63896369 -55.67299272 22.72935406 -55.64774704 19.81949425 C-55.64045108 18.44779954 -55.64205321 17.07602588 -55.65297318 15.70435524 C-55.66723314 13.80871638 -55.64824447 11.91291499 -55.62768555 10.01733398 C-55.62705612 8.94756821 -55.6264267 7.87780243 -55.6257782 6.77561951 C-54.78385472 3.04129443 -53.1636254 2.02159691 -50 0 C-43.9221782 -1.80733607 -37.16963839 -1.63845999 -30.875 -2.0625 C-28.97234375 -2.19881836 -28.97234375 -2.19881836 -27.03125 -2.33789062 C-4.59391994 -3.87611995 -4.59391994 -3.87611995 0 0 Z " fill="#0D3D4E" transform="translate(589,276)"/>
<path d="M0 0 C21.46595745 1.81914894 21.46595745 1.81914894 28 8 C30.61173192 13.61206063 30.30438643 19.31579402 30.25 25.375 C30.23876099 27.04212036 30.23876099 27.04212036 30.22729492 28.74291992 C29.94616264 50.92724101 26.82416813 72.7329943 23.63037109 94.64501953 C23.04389186 98.67629963 22.48263422 102.71061547 21.92578125 106.74609375 C20.34892204 118.02575476 18.55490356 129.00974449 15.52978516 139.99316406 C14.72757008 143.03196955 14.04412215 146.09620771 13.34423828 149.15991211 C10.10910137 163.26080263 6.06412785 177.12016268 2 191 C-2.18090413 191.02480683 -6.36176872 191.04291049 -10.54272461 191.05493164 C-11.96363064 191.05994565 -13.38453156 191.06675852 -14.80541992 191.07543945 C-16.85336576 191.08763388 -18.9012431 191.09325772 -20.94921875 191.09765625 C-22.17987061 191.10289307 -23.41052246 191.10812988 -24.6784668 191.11352539 C-27.59219619 191.01393817 -30.17307326 190.67799322 -33 190 C-31.98637288 179.40986588 -30.37755547 168.97153607 -28.5 158.5 C-28.28641846 157.30793945 -28.07283691 156.11587891 -27.8527832 154.88769531 C-26.96108798 149.99144046 -26.05192348 145.11169919 -24.93359375 140.26171875 C-23.87831996 135.64582205 -23.21520952 130.99964142 -22.5625 126.3125 C-21.55977605 119.38372201 -20.3485003 112.56863745 -18.81640625 105.734375 C-16.12017482 93.40137383 -13.88684526 80.9670415 -12.0390625 68.47973633 C-11.48251983 64.77731965 -10.83210743 61.13471936 -9.99609375 57.484375 C-9.01026271 53.1790225 -8.32391953 48.86854491 -7.6875 44.5 C-6.33158567 35.5086273 -4.57720528 26.61576322 -2.71362305 17.71679688 C-1.49331625 11.81223966 -0.56173395 6.00431173 0 0 Z " fill="#FBFCFC" transform="translate(676,390)"/>
<path d="M0 0 C10.53922138 -0.27256607 20.57904782 0.46629876 31 2 C33.43663233 8.47295386 34.72404694 14.71099898 35.5625 21.5625 C36.45762072 28.85777421 36.45762072 28.85777421 38.02734375 36.02734375 C40.34908071 44.84507497 40.18226818 54.00622093 40.1875 63.0625 C40.19974609 64.18205078 40.21199219 65.30160156 40.22460938 66.45507812 C40.24367966 77.29335679 39.24273497 86.68433588 31.328125 94.69140625 C29.60409756 96.21328003 27.83982168 97.62116273 26 99 C24.576875 100.0828125 24.576875 100.0828125 23.125 101.1875 C18.43318679 103.90875166 13.47387151 106 8 106 C5.96008999 84.42951052 3.92961975 62.87394644 2.65332031 41.24291992 C2.17439411 33.24907819 1.48014439 25.30694159 0.61328125 17.34667969 C0.00043211 11.55224126 -0.24062784 5.8285409 0 0 Z " fill="#FBFCFC" transform="translate(322,421)"/>
</svg>
